<svg width="858" height="348" viewBox="0 0 858 348" fill="none" xmlns="http://www.w3.org/2000/svg">
<g clip-path="url(#clip0_1_757)">
<path d="M162.049 216.008C160.837 206.89 164.277 205.254 173.971 200.303C177.397 198.552 181.539 198.202 185.3 197.226C183.509 194.543 180.468 194.151 174.668 195.941C170.793 197.137 166.904 198.285 162.086 199.736C162.086 190.289 161.954 182.025 162.263 173.777C162.299 172.815 164.726 171.234 166.122 171.145C176.449 170.483 186.351 171.724 194.659 178.797C195.461 179.481 196.535 179.846 198.313 180.806C196.64 174.196 191.893 170.908 187.362 169.387C180.755 167.17 173.487 166.678 166.448 166.099C162.972 165.813 161.7 164.851 161.973 161.426C162.197 158.616 162.038 155.775 162.464 152.478C165.178 152.745 167.989 152.881 169.685 154.325C176.681 160.284 184.803 160.246 192.938 158.822C197.769 157.977 202.335 155.62 207.021 153.942C208.254 154.751 209.488 155.56 210.908 156.987C211.745 158.062 212.396 158.519 213.047 158.976C219.952 164.041 220.902 177.969 215.698 186.507C214.755 188.055 213.923 189.671 212.854 191.676C212.79 192.077 212.911 192.058 213.032 192.039C220.723 188.481 225.206 177.665 223.48 167.413C227.781 167.661 230.122 166.16 230.846 162.182C231.047 161.079 231.615 160.043 232.014 158.977C232.454 158.979 232.894 158.981 234.02 159.147C238.824 160.099 243.274 160.225 245.435 164.859C245.541 165.088 246.377 164.977 246.873 165.025C246.891 168.065 246.908 171.106 246.705 174.771C246.577 175.78 246.669 176.166 246.761 176.551C247.179 176.048 247.597 175.545 248.015 175.041C250.928 169.882 251.719 164.595 249.618 158.853C249.149 157.572 249.93 155.701 250.457 154.216C251.511 151.248 253.216 148.452 253.869 145.417C254.799 141.093 257.009 141.762 259.595 143.415C270.59 150.445 275.774 160.551 273.817 173.456C272.07 184.977 265.589 193.514 254.153 196.958C246.357 199.306 238.201 200.459 230.966 201.987C242.752 209.048 265.783 201.968 279.088 186.036C287.263 192.934 290.793 202.084 290.776 212.217C290.757 224.328 285.466 233.619 272.658 237.831C271.889 238.067 271.596 238.041 270.896 238.002C269.942 238.001 269.398 237.996 268.513 238.057C266.846 238.438 265.519 238.754 264.193 239.069C265.011 232.613 266.495 226.098 263.137 220.339C261.613 226.012 260.067 231.768 257.979 237.5C257.379 236.515 256.981 235.409 257.319 234.617C259.14 230.343 257.643 226.978 254.117 224.797C251.588 223.234 248.113 223.167 245.648 221.54C241.255 218.642 239.002 220.753 236.876 224.236C234.583 227.992 231.36 229.793 226.891 228.94C228.569 227.532 230.247 226.124 232.126 224.314C232.209 223.929 232.089 223.946 231.97 223.963C222.848 226.455 214.432 226.011 206.183 220.284C199.08 215.352 190.945 212.296 181.9 215.03C180.999 215.302 180.197 215.896 178.782 216.68C172.826 216.683 167.437 216.345 162.049 216.008Z" fill="#CFE4CE"/>
<path d="M232.998 259C234.124 262.843 237.102 260.901 239.23 260.737C241.463 260.566 243.632 259.556 245.671 258.958C251.44 266.695 247.563 281.71 243.067 287.345C235.529 296.793 223.147 297.407 215.447 294.446C209.908 292.317 207.056 287.631 206.101 281.806C205.889 280.515 205.546 279.246 205.263 277.966C204.738 277.942 204.213 277.918 203.687 277.895C203.136 279.836 202.449 281.751 202.057 283.724C200.045 293.867 190.851 301.718 180.619 302.004C173.919 302.191 167.313 302.094 161.21 298.632C160.342 298.139 158.838 298.766 157.628 298.874C158.123 300.11 158.307 302.103 159.165 302.456C164.285 304.561 169.451 307.295 174.813 307.881C181.217 308.581 187.833 307.333 195.281 306.872C181.296 322.188 165.146 334.361 148.138 348.109C148.138 343.036 148.05 339.497 148.154 335.965C148.445 326.16 148.772 316.356 149.175 306.555C149.325 302.911 149.618 299.264 150.087 295.649C150.207 294.722 151.064 293.439 151.889 293.125C158.296 290.688 159.431 285.13 160.006 279.416C160.587 273.641 160.899 267.823 160.966 262.02C161.002 258.961 162.088 258.183 165.044 257.951C178.68 256.88 190.882 259.501 200.043 270.946C206.947 265.673 212.377 259.852 215.318 251.404C221.553 253.743 227.275 256.372 232.998 259Z" fill="#B5DABF"/>
<path d="M114.004 281.003C113.683 281.075 113.412 281.233 112.743 281.75C110.855 282.996 109.417 283.968 107.978 284.94C107.434 285.114 106.889 285.288 105.815 285.692C104.524 286.283 103.762 286.645 103 287.007C102.449 287.144 101.897 287.281 100.716 287.653C90.5627 289.643 81.1093 290.314 71.9767 286.058C71.5352 285.724 71.0936 285.39 70.2112 284.727C68.5316 283.246 67.2928 282.093 66.054 280.941C66.054 280.941 66.0265 281.009 65.9953 280.657C65.3446 279.192 64.7251 278.078 64.1057 276.964C64.0241 276.228 63.9425 275.491 63.8728 273.984C64.2744 270.82 64.6639 268.427 65.0535 266.034C65.0535 266.034 65.0107 265.994 65.3176 265.862C67.4591 263.865 69.2937 262 71.1284 260.135C71.1284 260.135 70.9975 260.032 71.4227 259.962C72.1429 257.685 72.4378 255.479 72.8062 252.801C72.2521 244.22 71.6247 236.111 70.9999 227.573C71.0077 225.711 71.0131 224.278 71.4803 222.854C75.5131 222.863 79.0841 222.863 83.0183 222.863C83.0183 236.309 83.0942 248.769 82.9022 261.226C82.8828 262.489 81.4326 263.928 80.3291 264.939C77.1416 267.858 76.5801 272.636 79.2733 275.593C81.893 278.47 86.6179 278.39 89.52 275.42C92.3973 272.476 91.8789 268.747 88.795 265.258C87.3504 263.623 86.1027 261.159 86.0622 259.046C85.8133 246.073 85.9354 233.093 86.1581 219.831C90.6243 218.012 94.8664 216.477 99.3612 215.072C100.092 215.778 100.57 216.354 101.03 217.295C101.3 218.764 101.588 219.867 101.913 221.439C101.958 228.9 102.16 235.9 101.856 242.878C101.768 244.898 100.63 247.204 99.2703 248.769C96.5676 251.879 96.0345 255.408 98.5306 258.057C101.148 260.835 105.689 260.873 108.331 258.139C111.009 255.369 110.548 251.331 107.816 248.376C106.441 246.888 105.261 244.621 105.172 242.652C104.857 235.675 104.797 228.662 105.142 221.688C105.368 217.123 103.917 213.867 100.545 210.823C95.7413 206.486 91.3859 201.651 87.2466 197.021C91.2391 198.405 94.8239 199.797 98.5758 201.254C100.775 198.784 103.323 195.922 106.176 193.205C112.277 198.979 118.073 204.606 123.87 210.234C123.923 210.625 123.975 211.016 124.023 212.163C124.022 226.054 123.724 239.198 124.122 252.32C124.456 263.337 121.762 272.987 114.004 281.003Z" fill="#8FCDC8"/>
<path d="M41.0009 178.939C36.5559 178.959 32.1107 179.007 27.6657 178.992C19.2718 178.965 12.7593 170.702 14.4946 162.31C14.6604 161.508 14.8704 160.716 15.405 159.418C18.1485 154.606 20.5468 150.294 22.9452 145.982C22.9452 145.982 23.0149 145.535 23.3459 145.244C24.1223 144.305 24.5678 143.657 25.0132 143.009C25.0132 143.009 25 143 25.3109 142.874C26.81 141.545 27.9981 140.342 29.1862 139.139C29.1862 139.139 29.6097 139.127 30.1468 139.055C31.7925 138.336 32.9011 137.688 34.0098 137.041C34.4561 136.992 34.9024 136.943 35.8921 136.783C36.6946 136.509 36.8754 136.283 36.9779 135.994C36.9779 135.994 37.0026 135.999 37.4046 135.996C38.863 134.933 40.6327 133.98 40.8109 132.789C41.0877 130.939 40.2812 128.927 39.9339 126.983C39.9875 126.279 40.041 125.575 40.4266 124.428C41.4859 122.984 42.2132 121.983 42.9404 120.982C44.1711 119.823 45.4017 118.664 47.148 117.212C48.4768 115.968 49.2899 115.018 50.103 114.067C52.5364 112.475 54.9697 110.883 58.0156 109.109C59.437 108.299 60.2459 107.67 61.0548 107.041C61.5914 106.851 62.128 106.662 63.1774 106.2C64.796 105.608 65.9019 105.289 67.0078 104.97C67.0149 105.417 67.0221 105.863 67.0166 107.091C68.7857 116.708 70.5152 125.556 72.4213 134.366C72.6366 135.361 73.6795 136.586 74.6262 136.944C79.1708 138.663 79.414 142.188 79.0894 146.215C78.8764 148.858 78.8053 151.56 79.108 154.185C79.5859 158.329 77.7351 159.278 73.9551 159.137C67.1486 158.884 60.3243 158.967 53.5111 159.101C50.3715 159.163 47.7747 158.951 45.9696 155.724C45.2359 154.413 42.825 152.954 41.574 153.248C39.1115 153.827 35.9686 155.065 34.9128 157.011C33.9761 158.737 34.6584 162.897 36.1168 163.986C38.0706 165.445 41.4904 165.404 44.2254 165.213C46.5528 165.051 48.7839 163.153 51.0888 163.085C59.7248 162.832 68.3736 163.014 77.054 163.391C78.9177 167.013 76.8804 168.78 74.6288 170.705C71.9341 173.008 69.4865 175.6 66.5203 178.069C64.7366 178.043 63.3646 178.015 61.8061 177.748C60.7569 177.661 59.8942 177.812 58.5623 177.991C52.3957 178.325 46.6984 178.632 41.0009 178.939Z" fill="#B3E2DB"/>
<path d="M753.379 179.653C744.849 168.981 736.562 158.573 728.259 148.177C728.085 147.96 727.732 147.885 726.656 147.319C726.656 153.279 726.661 158.825 726.654 164.371C726.646 171.699 726.522 179.029 726.663 186.354C726.729 189.789 725.464 191.083 721.984 191.033C711.244 190.881 713.124 191.578 713.069 182.344C712.963 164.524 712.916 146.702 713.094 128.883C713.117 126.586 714.021 122.989 715.566 122.28C719.18 120.623 723.414 120.423 726.404 124.337C728.827 127.509 731.229 130.697 733.689 133.84C742.186 144.697 750.706 155.538 760.028 167.419C760.185 164.834 760.368 163.195 760.372 161.556C760.397 150.231 760.343 138.905 760.401 127.58C760.428 122.183 761.572 121.532 768.1 121.291C772.752 121.119 774.082 122.99 774.032 127.5C773.824 146.318 774.025 165.14 773.832 183.959C773.809 186.255 772.644 190.272 771.441 190.501C767.794 191.192 763.446 192.548 760.381 188.565C758.15 185.665 755.874 182.798 753.379 179.653Z" fill="#A5A3A2"/>
<path d="M206.846 153.638C202.335 155.62 197.769 157.977 192.938 158.822C184.803 160.246 176.681 160.284 169.685 154.325C167.989 152.881 165.178 152.745 162.486 152.014C162.064 146.026 162.332 140.012 161.91 134.047C161.605 129.738 163.532 127.203 167.16 126.215C172.375 124.795 177.751 123.933 183.093 123.038C185.019 122.716 187.045 122.986 189.673 122.986C186.373 117.454 181.441 117.669 176.807 118.072C172.105 118.482 167.471 119.666 162.048 120.648C162.048 112.619 161.941 104.702 162.172 96.7955C162.203 95.7173 163.727 94.0926 164.879 93.7274C178.343 89.4587 199.5 93.544 206.562 109.12C211.464 119.931 210.679 130.365 204.693 140.488C202.215 144.678 198.094 145.783 193.627 145.943C190.147 146.068 186.659 145.968 183.085 145.968C191.051 148.455 198.861 150.894 206.846 153.638Z" fill="#D7E7D2"/>
<path d="M845.841 188.899C831.483 193.475 817.815 193.702 805.424 184.692C790.964 174.176 787.801 151.06 797.758 136.102C810.405 117.101 838.818 117.668 852.21 127.76C856.055 130.657 855.765 133.091 853.418 136.489C851.12 139.817 848.724 140.873 845.169 138.171C838.656 133.219 831.269 132.455 823.378 133.752C811.934 135.632 805.451 146.395 806.278 157.336C807.571 174.434 819.291 182.512 836.215 178.932C844.077 177.269 845.227 175.166 843.377 164.832C839.925 164.832 836.307 164.714 832.7 164.863C828.421 165.039 828.481 162.162 828.321 159.205C828.155 156.129 828.725 153.963 832.522 154.018C839.518 154.12 846.519 154.113 853.516 153.992C856.448 153.941 857.818 154.973 857.764 158.028C857.64 165.025 857.835 172.032 857.512 179.017C857.433 180.737 856.268 182.927 854.894 183.954C852.267 185.916 849.131 187.198 845.841 188.899Z" fill="#A5A3A2"/>
<path d="M379.09 259.22C374.426 263.333 372.116 263.127 368.741 258.488C364.561 252.74 360.435 246.953 355.203 241.344C355.094 243.032 354.938 244.718 354.883 246.408C354.591 255.319 354.576 264.249 353.966 273.138C353.522 279.617 348.171 276.192 344.972 276.802C341.868 277.394 341.069 275.265 341.077 272.495C341.126 255.163 341.015 237.83 341.261 220.502C341.282 219.034 343.308 216.649 344.777 216.31C351.673 214.718 354.071 216.118 357.964 221.951C363.103 229.653 368.496 237.185 374.267 245.493C376.093 243.073 377.517 241.347 378.765 239.503C383.421 232.622 388.126 225.77 392.602 218.772C395.647 214.013 400.153 216.267 403.907 216.566C405.072 216.659 406.755 220.657 406.788 222.888C407.03 239.05 406.68 255.222 407.026 271.379C407.149 277.107 404.097 276.859 400.125 276.999C395.804 277.151 393.679 276.155 393.899 271.216C394.261 263.066 394.012 254.888 393.955 246.723C393.942 244.987 393.645 243.254 393.48 241.52C393.013 241.342 392.547 241.164 392.081 240.987C387.832 246.97 383.583 252.954 379.09 259.22Z" fill="#BADCC2"/>
<path d="M420.373 121.393C421.79 123.288 423.562 125.104 423.647 126.996C423.981 134.435 423.783 141.899 423.783 149.706C434.653 149.706 444.908 149.706 455.778 149.706C455.889 148.186 456.089 146.606 456.103 145.024C456.149 139.693 456.12 134.361 456.136 129.03C456.158 122.023 460.997 118.763 467.406 121.764C468.62 122.332 469.695 124.62 469.706 126.123C469.856 146.448 469.762 166.775 469.851 187.101C469.864 190.242 468.543 191.092 465.645 191.046C454.251 190.866 456.295 192.049 456.171 181.98C456.092 175.524 456.157 169.066 456.157 161.911C445.806 161.911 436.034 161.812 426.272 162.083C425.415 162.107 423.961 164.525 423.913 165.872C423.67 172.694 423.688 179.532 423.844 186.359C423.923 189.813 422.602 191.317 419.144 191.003C417.822 190.883 416.461 190.84 415.151 191.013C411.179 191.537 410.007 189.9 410.044 185.944C410.221 166.953 410.112 147.959 410.106 128.965C410.103 121.345 410.104 121.345 417.955 121.33C418.621 121.328 419.287 121.342 420.373 121.393Z" fill="#A8A6A5"/>
<path d="M654.938 153C654.925 164.322 654.755 175.148 654.981 185.965C655.065 189.98 653.675 191.476 649.791 191.004C648.479 190.844 647.119 190.868 645.801 191.003C642.203 191.372 641.164 189.587 641.227 186.271C641.357 179.448 641.23 172.619 641.266 165.793C641.277 163.621 641.184 161.812 638.223 161.834C628.752 161.905 619.28 161.861 608.956 161.861C608.956 169.614 609.071 177.036 608.883 184.45C608.83 186.562 608.187 190.309 607.319 190.46C603.816 191.071 600.098 190.742 596.518 190.293C595.965 190.224 595.386 187.718 595.38 186.337C595.3 166.357 595.385 146.377 595.265 126.398C595.233 120.955 598.777 121.321 602.384 121.33C605.86 121.339 609.164 121.144 609.012 126.309C608.787 133.937 608.954 141.576 608.954 149.988C619.279 149.988 629.193 150.069 639.098 149.825C639.839 149.806 641.093 147.479 641.137 146.191C641.353 139.872 641.201 133.54 641.259 127.214C641.306 122.055 642.301 121.428 648.645 121.299C652.741 121.215 655.254 121.968 655.042 127.03C654.687 135.506 654.94 144.009 654.938 153Z" fill="#A7A5A4"/>
<path d="M151.026 144.983C151.255 146.767 151.68 148.549 151.685 150.334C151.783 182.98 151.958 215.627 151.841 248.273C151.771 268.062 146.553 286.16 132.198 300.593C121.241 311.609 107.609 317.773 92.3728 319.541C83.9168 320.522 75.2325 319.535 66.3569 318.782C68.9636 317.009 71.8645 315.887 75.8003 314.366C73.5383 313.24 72.0019 312.024 70.2963 311.701C59.3362 309.624 50.2011 304.736 43.2132 295.78C36.7137 287.45 30.7558 278.743 29.1505 268.206C27.9108 260.067 28.3007 251.68 27.9866 243.402C27.9064 241.287 28.4951 238.768 25.0089 238.624C25.5334 236.582 26.0411 234.924 26.5488 233.266C27.056 233.273 27.5632 233.279 28.0704 233.286C30.3916 238.98 32.7128 244.673 35.034 250.367C34.2183 251.543 32.7875 252.666 32.6787 253.904C30.9156 273.984 41.5504 286.627 58.034 295.693C59.1696 296.317 60.2378 297.065 61.6612 298.273C61.9428 299.487 61.9005 300.183 61.5063 300.831C57.0974 299.197 53.0403 297.612 48.9273 295.903C48.7982 295.734 48.7253 295.688 48.6522 295.643C48.7773 295.755 48.9023 295.868 49.0484 296.329C53.5631 302.472 59.7483 305.171 67.0535 306.58C73.042 307.579 78.7403 309.007 84.4387 309.007C110.831 309.008 132.862 291.846 138.751 266.226C140.626 258.067 140.424 249.43 141.523 241.019C143.56 242.56 145.244 244.093 147.512 246.157C147.512 240.763 147.512 236.067 147.512 230.745C144.98 232.044 143.088 233.015 141.139 233.524C141.08 228.042 141.078 223.024 141.47 218.005C144.34 218.599 146.817 219.195 150.042 219.97C149.7 216.354 148.705 213.182 149.277 210.323C150.419 204.607 149.847 199.398 148.027 193.874C146.783 190.096 147.342 185.739 146.977 181.651C146.779 179.424 146.337 177.218 145.999 174.565C146.006 172.087 146.018 170.046 146.45 168.001C150.134 168.258 149.935 166.039 150.027 163.807C150.288 157.529 150.683 151.257 151.026 144.983Z" fill="#A5A3A2"/>
<path d="M512.325 216.467C513.104 218.38 513.809 220.096 513.822 221.816C513.915 233.966 513.936 246.118 513.824 258.267C513.786 262.402 513.481 266.557 512.938 270.654C512.664 272.731 511.603 276.422 510.874 276.427C507.463 276.455 502.67 276.666 500.86 274.615C492.096 264.684 484.146 254.036 475.869 243.672C474.677 242.179 473.279 240.849 470.994 238.383C470.994 249.917 470.999 259.986 470.992 270.055C470.987 276.123 464.861 279.708 459.692 276.394C458.584 275.684 458.134 273.267 458.122 271.631C458.01 255.487 458.054 239.341 458.053 223.196C458.053 220.383 457.504 216.828 461.253 216.355C464.795 215.907 468.736 214.742 471.773 218.649C480.626 230.038 489.723 241.237 498.736 252.501C498.916 252.726 499.233 252.842 500.136 253.438C500.136 244.469 500.135 235.93 500.137 227.391C500.138 215.585 500.139 215.585 512.325 216.467Z" fill="#BADCC2"/>
<path d="M558.77 151.219C563.041 153.165 567.274 154.514 570.74 156.952C576.142 160.752 578.456 166.433 577.721 173.086C576.858 180.889 572.732 186.692 565.436 189.304C552.207 194.042 539.273 192.604 526.989 185.761C523.443 183.786 521.848 181.095 524.225 177.141C526.467 173.413 529.181 172.981 533.018 175.067C540.327 179.039 548.097 181.159 556.533 179.318C559.791 178.607 562.588 177.481 563.25 173.672C563.96 169.592 562.156 166.656 558.628 165.224C554.343 163.484 549.771 162.463 545.363 161.012C541.901 159.871 538.396 158.772 535.09 157.262C527.965 154.007 524.626 148.31 525.098 140.465C525.554 132.888 528.768 126.832 535.952 123.92C548.562 118.809 560.991 119.86 572.972 126.252C575.661 127.687 577.219 129.776 575.287 132.722C573.453 135.519 572.138 138.776 567.177 137.044C561.315 134.997 555.059 133.984 548.904 132.933C547.11 132.626 544.908 133.38 543.183 134.233C537.826 136.882 537.459 143.441 542.825 145.985C547.722 148.307 553.178 149.449 558.77 151.219Z" fill="#A5A3A2"/>
<path d="M548.001 276.916C543.839 276.915 540.169 276.794 536.512 276.95C533.455 277.081 532.181 275.519 532.174 272.788C532.133 255.3 532.138 237.811 532.184 220.322C532.191 217.644 533.321 215.939 536.428 216.064C545.717 216.435 555.059 216.206 564.292 217.113C578.01 218.46 587.768 229.742 587.991 243.5C588.282 261.414 582.013 271.846 567.771 275.285C561.577 276.781 554.936 276.428 548.001 276.916ZM550.641 265.007C552.974 265.006 555.31 265.081 557.64 264.99C567.027 264.622 573.48 259.51 574.915 251.371C576.909 240.065 573.51 232.383 563.851 229.114C559.46 227.628 554.345 228.315 549.566 227.931C546.637 227.695 545.873 229.125 545.899 231.806C545.992 241.638 546.001 251.473 545.893 261.304C545.862 264.126 546.916 265.33 550.641 265.007Z" fill="#BADCC2"/>
<path d="M376.302 168.441C370.112 168.931 364.316 169.429 358.511 169.602C355.738 169.684 354.634 170.663 354.714 173.449C354.839 177.778 354.636 182.117 354.74 186.447C354.813 189.505 353.837 191.05 350.457 191.005C339.145 190.854 341.256 191.855 341.197 182.251C341.086 164.086 341.308 145.918 341.092 127.754C341.035 122.96 342.575 121.085 347.411 121.334C355.876 121.77 364.416 121.321 372.823 122.211C385.044 123.505 393.08 131.72 393.895 142.559C394.875 155.576 389.016 164.347 376.302 168.441ZM380.527 143.125C378.749 136.313 375.086 133.259 367.082 133.249C351.28 133.229 354.429 130.93 354.197 145.245C353.974 159.013 355.135 159.846 369.05 157.727C377.302 156.471 380.679 152.47 380.527 143.125Z" fill="#A7A5A4"/>
<path d="M141.076 218.005C141.078 223.024 141.08 228.043 141.071 233.96C141.097 236.909 141.135 238.961 141.172 241.012C140.424 249.43 140.627 258.067 138.751 266.226C132.862 291.846 110.831 309.008 84.4388 309.007C78.7404 309.007 73.042 307.579 67.1278 306.153C66.9344 304.646 66.9569 303.793 67.4487 302.953C76.1904 302.501 84.6921 303.1 92.6934 301.376C119.717 295.554 133.875 274.823 134.685 248.954C135.668 217.562 134.378 186.098 133.945 154.667C133.927 153.364 132.631 152.079 131.931 150.786C131.931 148.268 131.931 145.749 132.249 142.468C133.01 128.455 133.732 115.206 133.818 101.953C133.904 88.6716 133.355 75.3862 133.512 62.0835C135.941 62.0681 137.942 62.072 139.945 62.5363C140.268 81.5692 140.704 100.141 140.879 118.715C141.058 137.812 140.982 156.912 141.003 176.479C141.017 190.632 141.047 204.319 141.076 218.005Z" fill="#E9E9E9"/>
<path d="M637.682 260.675C637.661 256.127 634.526 254.808 631.29 253.887C625.404 252.21 619.308 251.18 613.553 249.156C604.244 245.882 601.226 240.636 602.059 230.795C602.62 224.165 609.237 217.506 617.203 216.299C626.306 214.921 635.393 215.097 643.974 219.095C646.801 220.413 650.212 221.597 648.394 225.986C646.941 229.493 643.354 230.86 639.141 229.406C633.255 227.374 627.24 225.754 621.177 227.996C618.86 228.853 617.092 231.193 615.073 232.857C616.808 234.642 618.233 237.219 620.342 238.04C624.309 239.584 628.737 239.892 632.846 241.132C636.467 242.224 640.218 243.405 643.385 245.387C654.475 252.327 653.93 268.118 642.092 273.738C629.309 279.806 616.334 278.534 603.806 272.16C600.544 270.5 599.468 267.963 601.355 264.803C603.116 261.852 605.85 259.966 609.316 261.877C616.278 265.716 623.798 265.454 631.237 264.908C633.424 264.748 635.45 262.387 637.682 260.675Z" fill="#BADCC2"/>
<path d="M71.0266 107.017C73.0338 99.3184 79.5262 96.21 85.9684 94.4892C97.0807 91.521 108.537 91.7011 119.881 94.1603C122.955 94.8267 124.173 96.2667 124.103 99.6C123.874 110.412 124.004 121.231 123.697 132.261C122.038 131.651 120.697 130.176 119.315 130.137C116.265 130.05 113.195 130.686 110.093 130.646C111.12 128.567 112.453 126.977 113.184 125.146C113.984 123.143 115.114 120.578 114.466 118.883C113.814 117.177 111.083 115.127 109.388 115.233C106.992 115.384 103.675 116.799 102.612 118.709C100.777 122.005 102.982 124.978 106.107 127.216C106.399 127.685 106.644 127.867 106.971 128.391C106.982 130.21 106.969 131.61 106.533 133.007C104.296 133.106 102.165 132.631 100.729 133.42C96.7681 135.595 94.4691 133.961 91.8626 131.056C90.4915 129.528 88.0144 128.992 85.855 127.7C83.2695 126.267 80.8869 125.094 78.4515 124.043C77.44 123.606 75.5356 123.668 75.3637 123.101C73.7538 117.79 72.4319 112.391 71.0266 107.017Z" fill="#B3E2DB"/>
<path d="M99.1084 214.942C94.8663 216.477 90.6243 218.012 85.7551 219.743C79.4724 218.844 73.8463 218.27 67.3688 220.463C69.1944 221.655 70.1064 222.25 71.0184 222.845C71.013 224.278 71.0077 225.71 70.5814 227.573C64.487 229.997 58.4313 225.874 52.5913 228.854C50.9521 226.003 49.5555 223.382 48.1588 220.762C47.7926 218.759 47.4265 216.755 47.0216 214.003C46.6403 211.838 46.2977 210.423 45.9552 209.008C45.9195 208.568 45.8838 208.129 45.8164 207.08C45.5248 205.98 45.265 205.489 45.0052 204.998C44.7114 203.246 44.4175 201.495 44.0596 198.985C43.6221 196.493 43.2486 194.759 42.8751 193.025C42.6747 192.21 42.4744 191.396 42.1491 189.9C41.6724 187.48 41.3207 185.742 40.969 184.003C40.9788 183.547 40.9886 183.09 41.4594 182.274C48.5456 181.911 55.1732 181.808 61.7944 181.969C63.489 182.01 65.6465 182.378 66.772 183.453C77.6508 193.844 88.3546 204.419 99.1084 214.942Z" fill="#9DD4CF"/>
<path d="M162.029 216.476C167.437 216.345 172.826 216.683 178.598 217.012C181.356 217.045 183.731 217.085 186.591 217.44C187.711 217.855 188.345 217.955 188.979 218.056C195.789 219.697 202.28 221.61 206.583 228.013C210.621 234.023 211.25 249.208 207.17 255.209C205.233 258.059 203.304 257.867 200.528 256.084C191.918 250.559 182.8 246.285 172.166 247.038C169.073 247.257 166 247.773 162.009 248.265C162.009 237.417 162.009 227.18 162.029 216.476Z" fill="#C8E2CA"/>
<path d="M139.943 62.0759C137.942 62.072 135.941 62.0681 133.479 61.621C133.01 59.1855 133.258 57.1463 132.907 55.2161C132.647 53.7848 131.954 52.0134 130.856 51.2263C126.337 47.9857 121.59 45.0632 116.927 42.0237C116.927 42.0237 116.997 42.016 116.964 41.7152C116.279 40.6098 115.628 39.8052 114.977 39.0007C111.402 32.077 111.915 24.6695 114.4 17.9396C120.099 2.50529 138.263 -4.9399 152.902 3.71696C159.285 10.3396 164.272 16.8827 164.109 26.4433C164.712 34.393 160.312 39.6456 155.652 44.9748C154.555 45.682 153.771 46.3362 152.994 46.9952C153 47 152.991 46.9855 152.676 47.0312C151.845 47.6845 151.329 48.2922 150.477 48.9064C149.094 49.2877 148.05 49.6624 146.647 50.0694C142.153 51.0347 140.598 54.0096 140.11 58.2805C140.027 59.8249 139.985 60.9504 139.943 62.0759ZM152.006 20.0124C152.006 20.0124 151.969 20.0519 151.947 19.3497C147.08 11.7505 141.316 9.51603 132.991 12.0013C127.76 13.5627 122.81 21.7243 123.066 28.3634C123.382 36.5483 129.218 42.1118 137.047 40.9064C149.899 41.175 155.206 34.9344 152.938 21.5131C152.61 21.0109 152.281 20.5087 152.006 20.0124Z" fill="#CBCBCA"/>
<path d="M232.168 158.674C231.615 160.043 231.047 161.079 230.846 162.182C230.122 166.16 227.781 167.662 223.48 167C218.808 160.231 214.549 153.464 209.79 145.904C222.229 136.445 220.7 122.921 215.971 109.064C226.996 104.84 242.129 115.367 244.758 126.421C246.844 135.188 247.987 144.377 240.951 151.853C238.515 154.441 235.222 156.222 232.168 158.674Z" fill="#D7E7D2"/>
<path d="M233.362 258.955C227.275 256.372 221.553 253.743 215.475 251.082C215.706 247.958 216.293 244.867 217.156 241.244C217.297 240.144 217.16 239.577 217.023 239.009C217.015 237.941 217.008 236.873 217.359 235.364C220.146 232.951 222.573 230.98 225 229.008C225.421 228.989 225.842 228.97 226.577 228.945C231.36 229.793 234.583 227.992 236.876 224.236C239.002 220.753 241.255 218.642 245.648 221.54C248.113 223.167 251.588 223.234 254.117 224.797C257.643 226.978 259.14 230.343 257.319 234.617C256.981 235.409 257.379 236.515 257.708 237.732C254.537 247.289 247.363 252.807 238.781 256.872C237.142 257.648 235.413 258.235 233.362 258.955Z" fill="#C8E2CA"/>
<path d="M689.231 121.698C690.032 123.572 690.792 125.277 690.799 126.985C690.886 146.645 690.765 166.306 690.939 185.965C690.974 189.907 689.799 191.551 685.817 191.023C684.343 190.828 682.814 190.895 681.324 191.016C678.231 191.266 677.237 189.75 677.242 186.853C677.278 166.527 677.257 146.2 677.211 125.874C677.203 122.66 678.819 121.352 681.852 121.407C684.181 121.449 686.511 121.49 689.231 121.698Z" fill="#A7A5A4"/>
<path d="M505.738 178.961C505.737 180.121 505.738 180.787 505.737 181.452C505.711 191.815 505.709 191.724 495.485 191.015C492.815 190.83 492.079 189.742 492.084 187.319C492.126 166.676 492.059 146.032 492.242 125.39C492.253 124.15 493.911 122.174 495.164 121.82C502.683 119.695 505.752 122.204 505.749 130.023C505.742 146.172 505.741 162.32 505.738 178.961Z" fill="#A5A3A2"/>
<path d="M438.948 227.026C438.946 242.161 438.665 256.806 439.072 271.433C439.249 277.803 435.415 276.654 431.638 276.972C427.417 277.327 425.823 276.168 425.902 271.545C426.189 254.916 426.15 238.277 425.917 221.646C425.857 217.354 426.887 215.729 431.435 215.99C440.365 216.502 438.774 214.703 438.948 227.026Z" fill="#BADCC2"/>
<path d="M24.9921 239.008C28.4951 238.768 27.9064 241.287 27.9866 243.402C28.3007 251.68 27.9108 260.067 29.1505 268.206C30.7558 278.743 36.7137 287.45 43.2132 295.78C50.2011 304.736 59.3362 309.624 70.2963 311.701C72.0019 312.024 73.5383 313.24 75.8003 314.366C71.8645 315.887 68.9636 317.009 66.0534 318.528C64.9091 318.733 63.7742 318.54 62.2423 318.025C61.581 317.78 61.3167 317.856 61.0525 317.932C49.8785 316.343 40.7236 310.7 32.3826 303.053C35.521 302.941 38.5684 303.383 41.6158 303.824C41.8293 303.373 42.0428 302.922 42.2563 302.471C41.0232 301.084 39.8404 299.648 38.5446 298.322C36.7146 296.449 34.3204 294.948 33.0133 292.778C29.1221 286.319 25.644 279.611 21.9799 272.594C21.3272 264.801 20.6991 257.414 20.4263 249.942C22.185 246.24 23.5885 242.624 24.9921 239.008Z" fill="#BFBEBE"/>
<path d="M264.015 239.371C265.519 238.754 266.846 238.438 268.693 238.311C269.911 238.332 270.608 238.165 271.305 237.998C271.596 238.041 271.889 238.067 272.394 238.095C275.14 238.642 277.675 239.17 280.238 239.704C283.894 254.579 276.289 269.608 263.092 274.119C259.281 275.422 256.981 274.281 255.216 271.171C254.069 269.15 252.992 267.053 252.193 264.876C250.526 260.331 249.293 256.442 254.621 252.455C258.634 249.452 260.831 244.022 264.015 239.371Z" fill="#BADCC2"/>
<path d="M25.0235 187.857C23.1319 192.056 20.8652 195.952 18.8901 199.991C14.8752 208.2 11.0177 216.487 7.25923 224.397C-2.50056 215.185 -2.32698 194.581 10.3379 175.847C15.1664 179.782 19.9734 183.7 25.0235 187.857Z" fill="#A8DCD6"/>
<path d="M123.993 204.69C118.727 199.948 113.428 195.032 108.277 189.966C103.838 185.601 99.5666 181.064 95.4531 176.289C96.6089 175.018 97.6209 174.13 98.4405 173.09C101.334 169.419 104.161 165.696 107.062 162.334C112.39 167.817 117.669 172.959 122.948 178.1C123.331 179.163 123.714 180.226 124.075 182.075C124.099 185.249 124.143 187.638 124.188 190.026C124.164 191.079 124.141 192.131 124.095 193.979C124.108 195.859 124.145 196.943 124.181 198.027C124.149 198.776 124.117 199.525 124.067 201.016C124.07 202.497 124.091 203.237 124.113 203.977C124.113 203.977 124.025 204.451 123.993 204.69Z" fill="#9DD4CF"/>
<path d="M131.707 151.146C132.631 152.079 133.927 153.364 133.945 154.667C134.377 186.098 135.668 217.562 134.685 248.954C133.874 274.823 119.717 295.554 92.6933 301.376C84.692 303.1 76.1903 302.501 67.2256 302.699C64.9749 301.914 63.4165 301.397 61.8582 300.879C61.9005 300.183 61.9427 299.487 61.9552 298.444C68.6571 298.76 75.385 299.939 82.1215 299.99C104.916 300.164 123.168 285.736 129.139 263.626C134.029 245.521 133.101 227.18 132.297 208.748C131.71 195.298 132.094 181.807 131.965 168.334C131.911 162.724 131.65 157.116 131.707 151.146Z" fill="#CBCBCA"/>
<path d="M110.134 131.028C113.196 130.686 116.265 130.05 119.315 130.136C120.697 130.176 122.039 131.65 123.664 132.727C123.977 142.01 124.025 151.039 124.058 160.964C124.069 163.582 124.095 165.304 124.12 167.027C124.103 167.468 124.087 167.909 124.048 169.078C124.034 170.872 124.043 171.938 124.052 173.004C124.052 173.004 124.012 173.022 123.665 173.011C120.239 170.527 117.171 168.039 114.076 165.584C110.958 163.111 109.844 159.953 109.962 155.963C110.207 147.656 110.098 139.34 110.134 131.028Z" fill="#A8DCD6"/>
<path d="M155.966 44.922C160.312 39.6456 164.712 34.393 164.429 26.4039C165.817 25.6324 166.854 25.3345 167.892 25.0366C170.201 34.3969 164.513 46.1403 154.489 52.1693C152.268 53.5055 151.414 54.6187 151.441 57.503C151.634 77.7618 151.447 98.0243 150.893 118.345C148.789 116.028 152.554 110.482 146.024 110.526C145.673 93.0389 145.335 76.0201 145.312 58.8418C149.839 56.399 146.347 52.8871 147.005 50.037C148.049 49.6624 149.094 49.2878 150.82 48.9045C151.997 48.2591 152.494 47.6223 152.991 46.9855C152.991 46.9855 153 47 153.352 46.9931C154.458 46.2982 155.212 45.6101 155.966 44.922Z" fill="#A5A3A2"/>
<path d="M117.866 334.15C115.475 332.123 113.359 330.321 110.979 328.294C119.31 322.919 127.275 317.779 136.051 312.117C136.051 323.791 136.051 335.068 136.051 347.339C129.932 342.91 124.037 338.643 117.866 334.15Z" fill="#B3E2DB"/>
<path d="M25.009 238.624C23.5886 242.624 22.1851 246.24 20.3984 249.518C22.2898 235.259 25.7654 221.699 32.3374 209.275C34.5131 224.637 38.2734 239.168 44.9202 252.905C45.662 254.438 45.526 256.396 45.797 258.157C42.295 255.745 38.793 253.332 35.1625 250.643C32.7129 244.673 30.3917 238.98 28.0704 233.286C27.5632 233.279 27.056 233.273 26.5489 233.266C26.0412 234.924 25.5335 236.582 25.009 238.624Z" fill="#CBCBCA"/>
<path d="M52.8339 229.085C58.4313 225.874 64.4869 229.997 70.5789 228.003C71.6247 236.111 72.252 244.22 72.4222 252.738C69.6457 252.759 67.3262 252.372 65.0067 251.985C63.879 250.751 62.7513 249.517 61.2925 247.764C58.2522 241.191 55.543 235.138 52.8339 229.085Z" fill="#A8DCD6"/>
<path d="M22.0045 273C25.644 279.611 29.1221 286.319 33.0133 292.778C34.3203 294.948 36.7145 296.449 38.5446 298.322C39.8404 299.648 41.0231 301.084 42.2563 302.471C42.0428 302.922 41.8293 303.373 41.6158 303.824C38.5684 303.383 35.521 302.941 32.2406 302.746C21.6054 294.968 15.7269 284.301 14.0638 270.984C14.9799 268.994 15.409 267.474 15.9394 266.332C17.1357 269.654 16.738 274.013 22.0045 273Z" fill="#CBCBCA"/>
<path d="M116.941 42.384C121.59 45.0632 126.337 47.9857 130.856 51.2263C131.954 52.0134 132.647 53.7848 132.907 55.2161C133.258 57.1463 133.01 59.1855 133.051 61.6403C133.354 75.3862 133.904 88.6715 133.818 101.953C133.732 115.206 133.009 128.454 132.258 142.051C131.633 126.105 131.335 109.813 130.992 93.5223C130.743 81.7237 130.568 69.9201 130.014 58.1351C129.928 56.3053 128.228 54.3426 126.852 52.8246C123.692 49.3389 120.271 46.0896 116.941 42.384Z" fill="#BFBEBE"/>
<path d="M146.039 110.993C152.554 110.482 148.789 116.028 150.68 118.687C151.01 127.331 151.065 135.692 151.073 144.518C150.683 151.257 150.288 157.529 150.028 163.807C149.935 166.039 150.134 168.258 146.437 167.532C146.016 148.376 146.027 129.685 146.039 110.993Z" fill="#A8A6A5"/>
<path d="M45.9523 258.448C45.526 256.396 45.662 254.438 44.9202 252.905C38.2734 239.168 34.5131 224.637 32.3436 208.874C32.0643 207.111 32.0543 206.039 32.0219 204.983C31.9996 204.998 32.053 205.003 32.3191 204.867C33.3273 204.2 34.0694 203.667 34.8117 203.134C36.1415 223.49 41.8906 242.531 51.7989 260.341C52.0969 260.876 52.2167 261.511 52.9183 263.546C49.9272 261.435 48.0174 260.087 45.9523 258.448Z" fill="#A8A6A5"/>
<path d="M15.8381 265.953C15.409 267.474 14.98 268.994 14.3036 270.754C8.8615 245.883 19.4775 224.619 30.9824 203.386C31.6719 203.883 31.8624 204.443 32.053 205.003C32.053 205.003 31.9995 204.998 31.7467 205.195C22.0298 224.482 14.3333 244.028 15.8381 265.953Z" fill="#BFBEBE"/>
<path d="M167.918 24.6357C166.854 25.3345 165.817 25.6324 164.46 25.9697C164.272 16.8828 159.285 10.3396 153.102 3.99713C162.316 7.36145 166.43 14.8547 167.918 24.6357Z" fill="#A8A6A5"/>
<path d="M246.868 164.653C246.377 164.977 245.541 165.088 245.435 164.859C243.274 160.225 238.824 160.099 234.35 159.153C236.986 158.442 240.287 156.887 242.868 157.678C244.702 158.24 245.565 161.967 246.868 164.653Z" fill="#D7E7D2"/>
<path d="M224.556 228.996C222.573 230.98 220.146 232.951 217.373 234.963C216.872 233.255 216.717 231.507 216.492 228.984C219.091 228.984 221.601 228.984 224.556 228.996Z" fill="#CFE4CE"/>
<path d="M32.319 204.867C31.8624 204.443 31.6719 203.883 31.2318 203.154C31.7843 201.681 32.5863 200.377 34.0993 197.916C34.5462 200.353 34.733 201.372 34.8657 202.762C34.0694 203.667 33.3272 204.2 32.319 204.867Z" fill="#CBCBCA"/>
<path d="M114.999 39.3428C115.628 39.8053 116.279 40.6098 116.942 41.743C116.31 41.2761 115.666 40.4806 114.999 39.3428Z" fill="#BFBEBE"/>
<path d="M247.729 175.038C247.597 175.545 247.179 176.048 246.761 176.551C246.669 176.166 246.577 175.78 246.678 175.227C247.062 175.052 247.252 175.043 247.729 175.038Z" fill="#D7E7D2"/>
<path d="M216.809 239.157C217.16 239.577 217.297 240.144 217.212 240.858C216.858 240.437 216.726 239.871 216.809 239.157Z" fill="#CFE4CE"/>
<path d="M188.811 217.813C188.345 217.955 187.711 217.855 187.031 217.496C187.538 217.348 188.091 217.459 188.811 217.813Z" fill="#CFE4CE"/>
<path d="M212.989 158.662C212.396 158.519 211.745 158.062 211.06 157.276C211.661 157.414 212.296 157.881 212.989 158.662Z" fill="#D7E7D2"/>
<path d="M61.2922 317.971C61.3167 317.856 61.581 317.78 61.9315 317.862C62.0179 318.02 61.532 318.011 61.2922 317.971Z" fill="#A5A3A2"/>
<path d="M82.7915 193.037C77.6235 188.233 72.4554 183.429 67.1096 178.346C69.4865 175.6 71.9341 173.008 74.6288 170.705C76.8804 168.78 78.9177 167.013 77.054 163.391C80.4894 166.982 83.7872 171.101 87.4727 174.839C93.3909 180.84 99.5655 186.589 105.752 192.752C103.323 195.922 100.775 198.784 98.5758 201.254C94.8239 199.797 91.239 198.405 87.2465 197.021C86.2912 196.584 85.7436 196.139 84.9905 195.187C84.5023 194.461 84.2195 194.241 83.9368 194.021C83.9368 194.021 83.9967 194.003 83.863 193.789C83.4167 193.395 83.1041 193.216 82.7915 193.037Z" fill="#9DD4CF"/>
<path d="M101.03 217.295C101.355 218.035 101.663 219.141 101.923 220.608C101.588 219.867 101.3 218.764 101.03 217.295Z" fill="#9DD4CF"/>
<path d="M61.8061 177.748C61.2517 177.988 60.5109 177.99 59.4008 177.977C59.8941 177.812 60.7569 177.661 61.8061 177.748Z" fill="#9DD4CF"/>
<path d="M146.025 110.526C146.027 129.685 146.016 148.376 146.017 167.536C146.018 170.046 146.006 172.087 145.634 174.603C143.856 175.389 142.437 175.7 141.018 176.011C140.982 156.912 141.058 137.812 140.879 118.715C140.704 100.141 140.268 81.5692 139.945 62.5363C139.985 60.9504 140.027 59.8249 140.464 58.3228C142.238 58.2979 143.618 58.6496 144.998 59.0012C145.336 76.0201 145.673 93.0388 146.025 110.526Z" fill="#BFBEBE"/>
<path d="M141.003 176.479C142.437 175.7 143.856 175.389 145.64 175.04C146.337 177.218 146.779 179.424 146.977 181.651C147.342 185.739 146.783 190.096 148.027 193.874C149.847 199.398 150.419 204.607 149.277 210.323C148.705 213.182 149.7 216.354 150.042 219.97C146.817 219.195 144.34 218.599 141.47 218.005C141.047 204.319 141.017 190.632 141.003 176.479Z" fill="#A8A6A5"/>
<path d="M141.523 241.019C141.134 238.961 141.097 236.909 141.128 234.422C143.088 233.015 144.98 232.044 147.512 230.745C147.512 236.067 147.512 240.763 147.512 246.157C145.244 244.093 143.56 242.56 141.523 241.019Z" fill="#A8A6A5"/>
<path d="M61.5063 300.831C63.4166 301.397 64.9749 301.914 66.7563 302.686C66.9568 303.793 66.9344 304.646 66.8376 305.925C59.7483 305.171 53.563 302.472 49.0357 296.339C49.002 296 48.9833 296.026 48.9833 296.026C53.0403 297.612 57.0974 299.197 61.5063 300.831Z" fill="#D7E7D2"/>
<path d="M49.0147 295.99C48.9023 295.868 48.7773 295.755 48.6522 295.643C48.7252 295.688 48.7982 295.734 48.9273 295.903C48.9833 296.026 49.002 296 49.0147 295.99Z" fill="#D7E7D2"/>
<path d="M106.533 133.007C106.987 142.359 107.019 151.709 107.032 161.525C104.161 165.696 101.334 169.419 98.4404 173.09C97.6209 174.13 96.6088 175.018 95.301 175.981C94.3657 175.507 93.8145 175.027 93.1288 173.891C92.6289 167.409 92.1158 167.012 84.9541 167.012C84.2966 166.237 83.6391 165.462 83.2211 164.174C83.2966 162.763 83.1325 161.866 82.9685 160.968C82.9578 155.298 82.9471 149.627 83.2344 143.232C83.6808 140.984 83.8292 139.46 83.9775 137.937C84.6643 134.913 85.3511 131.89 86.0374 128.437C88.0144 128.992 90.4915 129.528 91.8626 131.056C94.4691 133.961 96.7681 135.595 100.729 133.42C102.166 132.631 104.296 133.106 106.533 133.007Z" fill="#A8DCD6"/>
<path d="M106.107 127.216C106.321 127.09 106.576 127.266 106.857 127.754C106.644 127.867 106.399 127.685 106.107 127.216Z" fill="#A8DCD6"/>
<path d="M151.958 19.7008C147.774 18.4773 143.598 15.6822 139.379 15.6146C133.084 15.5136 129.431 19.6855 128.159 25.6717C126.906 31.5729 129.527 36.6892 135.954 40.6444C129.218 42.1119 123.382 36.5483 123.066 28.3635C122.81 21.7243 127.76 13.5627 132.991 12.0013C141.316 9.51606 147.08 11.7506 151.958 19.7008Z" fill="#A8A6A5"/>
<path d="M145.312 58.8418C143.618 58.6496 142.238 58.2979 140.505 57.904C140.597 54.0096 142.153 51.0347 146.647 50.0695C146.347 52.8871 149.839 56.399 145.312 58.8418Z" fill="#A8A6A5"/>
<path d="M155.652 44.9749C155.212 45.61 154.458 46.2981 153.346 46.9883C153.771 46.3362 154.555 45.682 155.652 44.9749Z" fill="#A8A6A5"/>
<path d="M152.675 47.0312C152.494 47.6223 151.997 48.259 151.157 48.8978C151.329 48.2922 151.845 47.6846 152.675 47.0312Z" fill="#A8A6A5"/>
<path d="M152.966 21.8337C152.634 21.6502 152.273 21.146 151.932 20.3242C152.281 20.5087 152.609 21.0109 152.966 21.8337Z" fill="#A8A6A5"/>
<path d="M80.6492 135.896C77.0904 136.376 75.3105 134.436 75.3758 131.792C75.4132 130.274 77.2026 128.157 78.7064 127.544C79.7169 127.133 82.8426 128.855 82.8618 129.673C82.9097 131.709 81.722 133.775 80.6492 135.896Z" fill="#B3E2DB"/>
<path d="M38.8842 162.896C38.3645 160.873 38.1777 159.021 37.991 157.169C39.6598 157.024 41.6185 156.293 42.9018 156.927C43.8554 157.399 44.7046 160.541 44.2557 160.926C42.9355 162.059 40.9452 162.411 38.8842 162.896Z" fill="#B3E2DB"/>
<path d="M85.1177 167.305C92.1158 167.012 92.6289 167.409 92.9874 173.652C90.4141 171.912 87.8476 169.755 85.1177 167.305Z" fill="#9DD4CF"/>
<path d="M83.6946 138.194C83.8292 139.46 83.6808 140.984 83.2541 142.766C83.121 141.5 83.2663 139.976 83.6946 138.194Z" fill="#9DD4CF"/>
<path d="M82.9567 161.352C83.1325 161.866 83.2966 162.763 83.2061 163.853C82.9493 163.275 82.9471 162.506 82.9567 161.352Z" fill="#9DD4CF"/>
<path d="M103.903 250.172C105.185 251.717 106.453 253.138 106.751 254.739C106.849 255.264 104.445 256.818 103.154 256.857C102.134 256.888 100.055 254.786 100.181 254.548C101.033 252.935 102.347 251.566 103.903 250.172Z" fill="#9DD4CF"/>
<path d="M84.0415 194.269C84.2195 194.241 84.5023 194.461 84.8757 194.942C84.6931 194.974 84.4197 194.745 84.0415 194.269Z" fill="#8FCDC8"/>
<path d="M82.938 193.264C83.1042 193.216 83.4168 193.395 83.8546 193.819C83.6813 193.872 83.3828 193.682 82.938 193.264Z" fill="#8FCDC8"/>
<path d="M105.338 119.59C107.133 118.831 108.828 118.022 110.395 118.221C111.004 118.298 111.942 120.861 111.591 121.911C111.273 122.864 108.893 124.141 108.327 123.795C106.994 122.98 106.2 121.282 105.338 119.59Z" fill="#B3E2DB"/>
<path d="M81.0533 273.076C81.6171 270.857 82.0869 268.75 83.2868 267.213C83.6324 266.77 86.8823 267.558 87.3721 268.514C88.0588 269.855 87.8289 273.186 87.2539 273.37C85.4324 273.955 83.2686 273.474 81.0533 273.076Z" fill="#9DD4CF"/>
</g>
<defs>
<clipPath id="clip0_1_757">
<rect width="858" height="348" fill="white"/>
</clipPath>
</defs>
</svg>
